<svg width="44" height="45" viewBox="0 0 44 45" fill="none" xmlns="http://www.w3.org/2000/svg">
<path fill-rule="evenodd" clip-rule="evenodd" d="M10 14.8334C10 14.097 10.597 13.5001 11.3333 13.5001H32.6667C33.403 13.5001 34 14.097 34 14.8334C34 15.5698 33.403 16.1667 32.6667 16.1667H11.3333C10.597 16.1667 10 15.5698 10 14.8334ZM10 22.8334C10 22.097 10.597 21.5001 11.3333 21.5001H32.6667C33.403 21.5001 34 22.097 34 22.8334C34 23.5698 33.403 24.1667 32.6667 24.1667H11.3333C10.597 24.1667 10 23.5698 10 22.8334ZM10 30.8334C10 30.097 10.597 29.5001 11.3333 29.5001H32.6667C33.403 29.5001 34 30.097 34 30.8334C34 31.5698 33.403 32.1667 32.6667 32.1667H11.3333C10.597 32.1667 10 31.5698 10 30.8334Z" fill="white"/>
</svg>
