<svg width="25" height="25" viewBox="0 0 25 25" fill="none" xmlns="http://www.w3.org/2000/svg">
<path fill-rule="evenodd" clip-rule="evenodd" d="M2.37868 4.76491C2.94129 4.2023 3.70435 3.88623 4.5 3.88623H11.5C12.0523 3.88623 12.5 4.33395 12.5 4.88623C12.5 5.43852 12.0523 5.88623 11.5 5.88623H4.5C4.23478 5.88623 3.98043 5.99159 3.79289 6.17912C3.60536 6.36666 3.5 6.62101 3.5 6.88623V20.8862C3.5 21.1514 3.60536 21.4058 3.79289 21.5933C3.98043 21.7809 4.23478 21.8862 4.5 21.8862H18.5C18.7652 21.8862 19.0196 21.7809 19.2071 21.5933C19.3946 21.4058 19.5 21.1514 19.5 20.8862V13.8862C19.5 13.3339 19.9477 12.8862 20.5 12.8862C21.0523 12.8862 21.5 13.3339 21.5 13.8862V20.8862C21.5 21.6819 21.1839 22.4449 20.6213 23.0076C20.0587 23.5702 19.2957 23.8862 18.5 23.8862H4.5C3.70435 23.8862 2.94129 23.5702 2.37868 23.0076C1.81607 22.4449 1.5 21.6819 1.5 20.8862V6.88623C1.5 6.09058 1.81607 5.32752 2.37868 4.76491Z" fill="white"/>
<path fill-rule="evenodd" clip-rule="evenodd" d="M20.5 3.76489C20.2026 3.76489 19.9174 3.88303 19.7071 4.09332L10.403 13.3975L9.87439 15.5118L11.9888 14.9832L21.2929 5.67911C21.5032 5.46882 21.6213 5.1836 21.6213 4.88621C21.6213 4.58882 21.5032 4.30361 21.2929 4.09332C21.0826 3.88303 20.7974 3.76489 20.5 3.76489ZM18.2929 2.67911C18.8783 2.09375 19.6722 1.76489 20.5 1.76489C21.3278 1.76489 22.1218 2.09375 22.7071 2.67911C23.2925 3.26447 23.6213 4.05839 23.6213 4.88621C23.6213 5.71404 23.2925 6.50796 22.7071 7.09332L13.2071 16.5933C13.079 16.7215 12.9184 16.8124 12.7426 16.8564L8.74256 17.8564C8.40178 17.9415 8.04129 17.8417 7.79291 17.5933C7.54453 17.3449 7.44468 16.9845 7.52988 16.6437L8.52988 12.6437C8.57384 12.4678 8.66476 12.3073 8.79291 12.1791L18.2929 2.67911Z" fill="white"/>
</svg>
