<svg width="304" height="304" viewBox="0 0 304 304" fill="none" xmlns="http://www.w3.org/2000/svg">
<path d="M193.393 151.897H204.769C209.909 151.897 214.076 156.064 214.076 161.205V220.151C214.076 225.291 209.909 229.458 204.769 229.458H99.286C94.1458 229.458 89.9788 225.291 89.9788 220.151V161.205C89.9788 156.064 94.1458 151.897 99.286 151.897H110.662M193.393 151.897V113.117C193.393 100.19 185.119 74.3367 152.027 74.3367C118.935 74.3367 110.662 100.19 110.662 113.117V151.897M193.393 151.897H110.662" stroke="black" stroke-width="23.2682" stroke-linecap="round" stroke-linejoin="round"/>
<path d="M12.4182 260.482V43.3125C12.4182 26.1782 26.3082 12.2882 43.4425 12.2882H260.612C277.747 12.2882 291.637 26.1782 291.637 43.3125V260.482C291.637 277.617 277.747 291.507 260.612 291.507H43.4425C26.3082 291.507 12.4182 277.617 12.4182 260.482Z" stroke="black" stroke-width="23.2682"/>
</svg>
