<svg width="27" height="32" viewBox="0 0 27 32" fill="none" xmlns="http://www.w3.org/2000/svg">
<g clip-path="url(#clip0_0_1602)">
<path d="M26.4986 18.0444C26.4986 22.4208 26.4986 26.7971 26.4986 31.1735C26.4986 31.4174 26.5275 31.7762 26.3686 31.891C26.1952 32.0057 25.9497 31.7188 25.7619 31.5896C23.4076 29.9682 21.0533 28.3468 18.7279 26.6967C18.309 26.4097 17.8902 26.2949 17.3991 26.2949C13.2826 26.3093 9.18063 26.2949 5.06419 26.2949C2.44989 26.2949 0.5 24.3722 0.5 21.7894C0.5 16.1934 0.5 10.6117 0.514444 5.01568C0.514444 2.50464 2.421 0.538855 4.94864 0.524506C10.6394 0.495809 16.3447 0.495809 22.0355 0.510157C24.5776 0.524506 26.4841 2.47594 26.4841 4.98698C26.4986 9.33466 26.4841 13.6967 26.4841 18.0444H26.4986ZM12.9071 21.6603C14.4092 21.6746 15.8247 21.4307 17.038 20.4693C17.2402 20.3115 17.5002 20.1536 17.5002 19.8667C17.5146 19.1779 17.5291 18.4892 17.4857 17.8004C17.4568 17.3987 17.1969 17.2695 16.8213 17.5135C16.648 17.6283 16.4747 17.7574 16.3013 17.8722C14.2648 19.3358 10.6539 19.2927 9.5995 15.849C9.1373 14.328 9.18063 12.7784 9.5995 11.2717C10.365 8.60287 13.456 7.42627 15.7958 8.88985C16.0125 9.03334 16.2147 9.21987 16.4169 9.37771C16.6191 9.53555 16.8358 9.62164 17.0813 9.5212C17.3557 9.42076 17.3991 9.19117 17.3991 8.9329C17.3991 8.54548 17.3702 8.17241 17.4135 7.78499C17.4857 6.98146 17.0813 6.47925 16.388 6.17793C12.4305 4.48477 7.96737 5.57528 6.1908 10.3247C5.3964 12.434 5.58416 14.6724 6.11858 16.8534C6.59522 18.8479 7.73627 20.3115 9.65727 21.115C10.6972 21.5455 11.7949 21.6603 12.9071 21.6603ZM19.089 13.3093C19.0601 12.7066 18.5546 12.2475 17.9479 12.2618C17.3413 12.2762 16.8791 12.764 16.8935 13.381C16.9224 13.9837 17.428 14.4715 18.0057 14.4428C18.6123 14.4141 19.1034 13.8832 19.089 13.3093ZM13.1526 13.3523C13.1526 12.7784 12.6327 12.2618 12.0405 12.2618C11.4483 12.2618 10.9283 12.764 10.9283 13.338C10.9283 13.8976 11.4627 14.4285 12.0405 14.4428C12.6038 14.4572 13.1526 13.9263 13.1526 13.3523ZM16.0991 13.381C16.1136 12.7497 15.6658 12.2762 15.0448 12.2618C14.4526 12.2475 13.947 12.7497 13.947 13.3523C13.947 13.9263 14.3948 14.3998 14.9725 14.4428C15.5647 14.4715 16.0847 13.9837 16.0991 13.381Z" fill="white"/>
</g>
<defs>
<clipPath id="clip0_0_1602">
<rect width="26" height="31.4167" fill="white" transform="translate(0.5 0.5)"/>
</clipPath>
</defs>
</svg>
