<svg width="226" height="67" viewBox="0 0 226 67" fill="none" xmlns="http://www.w3.org/2000/svg">
<g clip-path="url(#clip0_0_1559)">
<path d="M54.8477 37.2241C54.8477 46.4572 54.8477 55.6902 54.8477 64.9233C54.8477 65.4379 54.9082 66.1947 54.5752 66.4369C54.212 66.6791 53.6973 66.0736 53.3038 65.8012C48.3694 62.3804 43.435 58.9596 38.5612 55.4783C37.6833 54.8729 36.8054 54.6307 35.7761 54.6307C27.1485 54.661 18.5511 54.6307 9.92349 54.6307C4.44419 54.6307 0.357422 50.5742 0.357422 45.1252C0.357422 33.3189 0.357422 21.543 0.387694 9.73677C0.387694 4.43911 4.38365 0.291794 9.68131 0.261522C21.6086 0.200977 33.5662 0.200977 45.4935 0.231249C50.8215 0.261522 54.8174 4.37856 54.8174 9.67623C54.8477 18.8488 54.8174 28.0516 54.8174 37.2241H54.8477ZM26.3614 44.8527C29.5097 44.883 32.4764 44.3684 35.0193 42.3401C35.4431 42.0071 35.988 41.6741 35.988 41.0687C36.0183 39.6156 36.0485 38.1625 35.9577 36.7095C35.8972 35.8618 35.3523 35.5894 34.5652 36.104C34.2019 36.3462 33.8387 36.6186 33.4754 36.8608C29.207 39.9486 21.6389 39.8578 19.429 32.5924C18.4603 29.3835 18.5511 26.1141 19.429 22.9355C21.0335 17.3049 27.5117 14.8225 32.4159 17.9103C32.87 18.213 33.2938 18.6066 33.7176 18.9396C34.1414 19.2726 34.5955 19.4542 35.1101 19.2423C35.6853 19.0304 35.7761 18.546 35.7761 18.0011C35.7761 17.1838 35.7156 16.3967 35.8064 15.5793C35.9577 13.8841 35.1101 12.8246 33.657 12.1888C25.3624 8.61669 16.0082 10.9174 12.2847 20.9375C10.6198 25.3876 11.0133 30.1101 12.1334 34.7115C13.1324 38.9193 15.5239 42.0071 19.5501 43.7024C21.7297 44.6105 24.0304 44.8527 26.3614 44.8527ZM39.318 27.2342C39.2574 25.9628 38.1979 24.994 36.9265 25.0243C35.655 25.0546 34.6863 26.0838 34.7166 27.3856C34.7771 28.657 35.8366 29.6863 37.0475 29.6257C38.319 29.5652 39.3482 28.4451 39.318 27.2342ZM26.876 27.325C26.876 26.1141 25.7862 25.0243 24.545 25.0243C23.3039 25.0243 22.2141 26.0839 22.2141 27.2947C22.2141 28.4754 23.3342 29.5954 24.545 29.6257C25.7257 29.656 26.876 28.5359 26.876 27.325ZM33.0516 27.3856C33.0819 26.0536 32.1434 25.0546 30.8417 25.0243C29.6005 24.994 28.541 26.0536 28.541 27.325C28.541 28.5359 29.4794 29.5349 30.6903 29.6257C31.9315 29.6863 33.0213 28.657 33.0516 27.3856Z" fill="#519252"/>
<path d="M87.2393 41.6439C86.0586 42.2494 84.8477 42.7035 83.5763 43.0062C82.3049 43.3089 80.9729 43.4603 79.6106 43.4603C75.4936 43.4603 72.2242 42.3099 69.8326 40.0092C67.4108 37.7085 66.2302 34.5905 66.2302 30.6551C66.2302 26.6894 67.4411 23.5713 69.8326 21.2706C72.2544 18.9699 75.4936 17.8196 79.6106 17.8196C81.0031 17.8196 82.3049 17.9709 83.5763 18.2737C84.8477 18.5764 86.0586 19.0305 87.2393 19.6359V24.752C86.0586 23.9346 84.878 23.3594 83.7579 22.9659C82.6076 22.6026 81.3967 22.3907 80.1252 22.3907C77.8548 22.3907 76.0687 23.1173 74.767 24.5703C73.4653 26.0234 72.7993 28.0516 72.7993 30.5945C72.7993 33.1374 73.4653 35.1354 74.767 36.6187C76.0687 38.0718 77.8548 38.7983 80.1252 38.7983C81.3967 38.7983 82.6076 38.6167 83.7579 38.2232C84.9083 37.8599 86.0586 37.2544 87.2393 36.4371V41.6439Z" fill="#519252"/>
<path d="M110.912 31.7146V43.0062H104.949V41.1596V34.3786C104.949 32.7439 104.918 31.6541 104.827 31.0183C104.767 30.4129 104.646 29.9588 104.464 29.6864C104.222 29.2928 103.919 28.9901 103.526 28.7782C103.132 28.5663 102.678 28.4452 102.163 28.4452C100.922 28.4452 99.9536 28.9295 99.2573 29.868C98.5611 30.8367 98.1978 32.1384 98.1978 33.8337V42.9759H92.2644V17.2444H98.1978V27.1738C99.106 26.0839 100.044 25.2969 101.043 24.7822C102.042 24.2676 103.162 24.0254 104.373 24.0254C106.523 24.0254 108.157 24.6914 109.247 25.9931C110.337 27.2948 110.912 29.202 110.912 31.7146Z" fill="#519252"/>
<path d="M133.768 32.4109V43.0062H127.774V40.2514C126.987 41.3715 126.079 42.1888 125.08 42.7035C124.081 43.2181 122.87 43.4603 121.447 43.4603C119.54 43.4603 117.966 42.8851 116.755 41.765C115.544 40.645 114.969 39.1919 114.969 37.4058C114.969 35.2262 115.726 33.6218 117.209 32.6228C118.692 31.5935 121.053 31.1092 124.262 31.1092H127.744V30.6551C127.744 29.7166 127.38 29.0204 126.624 28.5966C125.897 28.1727 124.716 27.9306 123.173 27.9306C121.901 27.9306 120.72 28.0517 119.631 28.3241C118.541 28.5663 117.512 28.9598 116.573 29.4745V24.9639C117.845 24.6611 119.116 24.419 120.388 24.2676C121.659 24.1162 122.961 24.0254 124.232 24.0254C127.592 24.0254 129.984 24.6914 131.467 25.9931C133.041 27.2948 133.768 29.4442 133.768 32.4109ZM124.716 34.651C123.475 34.651 122.537 34.8629 121.931 35.2867C121.296 35.7106 120.993 36.316 120.993 37.1334C120.993 37.8902 121.235 38.4653 121.75 38.8892C122.264 39.313 122.961 39.5249 123.839 39.5249C124.959 39.5249 125.897 39.1313 126.654 38.314C127.411 37.4966 127.804 36.4976 127.804 35.317V34.651H124.716Z" fill="#519252"/>
<path d="M145.786 19.1818V24.4492H151.901V28.6874H145.786V36.5582C145.786 37.4058 145.968 38.0113 146.301 38.314C146.634 38.6167 147.33 38.7681 148.329 38.7681H151.386V43.0062H146.301C143.97 43.0062 142.305 42.5218 141.336 41.5531C140.367 40.5844 139.883 38.9194 139.883 36.5885V28.7176H136.947V24.4795H139.883V19.1818H145.786Z" fill="#519252"/>
<path d="M170.791 38.4956H160.831L159.257 43.0062H152.84L162.012 18.2737H169.61L178.783 43.0062H172.365L170.791 38.4956ZM162.406 33.9245H169.187L165.796 24.0557L162.406 33.9245Z" fill="#272526"/>
<path d="M187.713 40.312V50.0597H181.78V24.4492H187.713V27.1738C188.531 26.0839 189.439 25.2969 190.438 24.7822C191.437 24.2676 192.587 24.0254 193.858 24.0254C196.159 24.0254 198.036 24.9336 199.489 26.7499C200.972 28.5663 201.699 30.8973 201.699 33.7731C201.699 36.6187 200.972 38.98 199.489 40.7963C198.006 42.6127 196.129 43.5208 193.858 43.5208C192.557 43.5208 191.437 43.2787 190.438 42.764C189.439 42.2191 188.531 41.4018 187.713 40.312ZM191.649 28.3241C190.377 28.3241 189.408 28.7782 188.712 29.7166C188.046 30.6551 187.683 31.9871 187.683 33.7429C187.683 35.4987 188.016 36.8306 188.712 37.7691C189.378 38.7075 190.377 39.1616 191.649 39.1616C192.92 39.1616 193.889 38.7075 194.555 37.7691C195.221 36.8306 195.554 35.4987 195.554 33.7126C195.554 31.9568 195.221 30.5945 194.555 29.6561C193.889 28.7782 192.92 28.3241 191.649 28.3241Z" fill="#272526"/>
<path d="M211.992 40.312V50.0597H206.058V24.4492H211.992V27.1738C212.809 26.0839 213.717 25.2969 214.716 24.7822C215.715 24.2676 216.866 24.0254 218.137 24.0254C220.438 24.0254 222.315 24.9336 223.768 26.7499C225.251 28.5663 225.978 30.8973 225.978 33.7731C225.978 36.6187 225.251 38.98 223.768 40.7963C222.284 42.6127 220.407 43.5208 218.137 43.5208C216.835 43.5208 215.715 43.2787 214.716 42.764C213.717 42.2191 212.809 41.4018 211.992 40.312ZM215.927 28.3241C214.656 28.3241 213.687 28.7782 212.991 29.7166C212.325 30.6551 211.961 31.9871 211.961 33.7429C211.961 35.4987 212.294 36.8306 212.991 37.7691C213.657 38.7075 214.656 39.1616 215.927 39.1616C217.199 39.1616 218.167 38.7075 218.833 37.7691C219.499 36.8306 219.832 35.4987 219.832 33.7126C219.832 31.9568 219.499 30.5945 218.833 29.6561C218.167 28.7782 217.199 28.3241 215.927 28.3241Z" fill="#272526"/>
</g>
<defs>
<clipPath id="clip0_0_1559">
<rect width="225.62" height="66.2813" fill="white" transform="translate(0.357422 0.210144)"/>
</clipPath>
</defs>
</svg>
