<svg width="160" height="34" viewBox="0 0 160 34" fill="none" xmlns="http://www.w3.org/2000/svg">
<path d="M21.2393 24.6439C20.0586 25.2494 18.8477 25.7035 17.5763 26.0062C16.3049 26.3089 14.9729 26.4603 13.6106 26.4603C9.49357 26.4603 6.22415 25.3099 3.83264 23.0092C1.41085 20.7085 0.230225 17.5905 0.230225 13.6551C0.230225 9.68939 1.44112 6.57134 3.83264 4.27064C6.25443 1.96994 9.49357 0.819588 13.6106 0.819588C15.0031 0.819588 16.3049 0.97095 17.5763 1.27367C18.8477 1.5764 20.0586 2.03048 21.2393 2.63593V7.75196C20.0586 6.93461 18.878 6.35943 17.7579 5.96589C16.6076 5.60262 15.3967 5.39071 14.1252 5.39071C11.8548 5.39071 10.0687 6.11725 8.76703 7.57033C7.46532 9.0234 6.79933 11.0516 6.79933 13.5945C6.79933 16.1374 7.46532 18.1354 8.76703 19.6187C10.0687 21.0718 11.8548 21.7983 14.1252 21.7983C15.3967 21.7983 16.6076 21.6167 17.7579 21.2232C18.9083 20.8599 20.0586 20.2544 21.2393 19.4371V24.6439Z" fill="#519252"/>
<path d="M44.9122 14.7146V26.0062H38.9485V24.1596V17.3786C38.9485 15.7439 38.9183 14.6541 38.8274 14.0183C38.7669 13.4129 38.6458 12.9588 38.4642 12.6864C38.222 12.2928 37.9193 11.9901 37.5257 11.7782C37.1322 11.5663 36.6781 11.4452 36.1635 11.4452C34.9223 11.4452 33.9536 11.9295 33.2573 12.868C32.5611 13.8367 32.1978 15.1384 32.1978 16.8337V25.9759H26.2644V0.244415H32.1978V10.1738C33.106 9.08395 34.0444 8.29686 35.0434 7.78223C36.0424 7.2676 37.1625 7.02542 38.3734 7.02542C40.5227 7.02542 42.1574 7.69142 43.2472 8.99313C44.337 10.2948 44.9122 12.202 44.9122 14.7146Z" fill="#519252"/>
<path d="M67.7679 15.4109V26.0062H61.774V23.2514C60.9869 24.3715 60.0787 25.1888 59.0797 25.7035C58.0807 26.2181 56.8698 26.4603 55.447 26.4603C53.5399 26.4603 51.9657 25.8851 50.7548 24.765C49.5439 23.645 48.9688 22.1919 48.9688 20.4058C48.9688 18.2262 49.7256 16.6218 51.2089 15.6228C52.6922 14.5935 55.0535 14.1092 58.2624 14.1092H61.7437V13.6551C61.7437 12.7166 61.3804 12.0204 60.6236 11.5966C59.8971 11.1727 58.7165 10.9306 57.1726 10.9306C55.9011 10.9306 54.7205 11.0517 53.6307 11.3241C52.5409 11.5663 51.5116 11.9598 50.5732 12.4745V7.96387C51.8446 7.66114 53.1161 7.41897 54.3875 7.2676C55.6589 7.11624 56.9607 7.02542 58.2321 7.02542C61.5923 7.02542 63.9838 7.69142 65.4672 8.99313C67.0414 10.2948 67.7679 12.4442 67.7679 15.4109ZM58.7164 17.651C57.4753 17.651 56.5368 17.8629 55.9314 18.2867C55.2957 18.7106 54.9929 19.316 54.9929 20.1334C54.9929 20.8902 55.2351 21.4653 55.7498 21.8892C56.2644 22.313 56.9607 22.5249 57.8386 22.5249C58.9586 22.5249 59.8971 22.1313 60.6539 21.314C61.4107 20.4966 61.8042 19.4976 61.8042 18.317V17.651H58.7164Z" fill="#519252"/>
<path d="M79.7861 2.18184V7.44924H85.9011V11.6874H79.7861V19.5582C79.7861 20.4058 79.9677 21.0113 80.3007 21.314C80.6337 21.6167 81.3299 21.7681 82.3289 21.7681H85.3864V26.0062H80.3007C77.9697 26.0062 76.3047 25.5218 75.336 24.5531C74.3673 23.5844 73.8829 21.9194 73.8829 19.5885V11.7176H70.9465V7.47951H73.8829V2.18184H79.7861Z" fill="#519252"/>
<path d="M104.791 21.4956H94.8315L93.2573 26.0062H86.8396L96.0121 1.27367H103.61L112.783 26.0062H106.365L104.791 21.4956ZM96.4057 16.9245H103.187L99.7962 7.0557L96.4057 16.9245Z" fill="#272526"/>
<path d="M121.713 23.312V33.0597H115.78V7.44924H121.713V10.1738C122.531 9.08395 123.439 8.29686 124.438 7.78223C125.437 7.2676 126.587 7.02542 127.858 7.02542C130.159 7.02542 132.036 7.9336 133.489 9.74994C134.972 11.5663 135.699 13.8973 135.699 16.7731C135.699 19.6187 134.972 21.98 133.489 23.7963C132.006 25.6127 130.129 26.5208 127.858 26.5208C126.557 26.5208 125.437 26.2787 124.438 25.764C123.439 25.2191 122.531 24.4018 121.713 23.312ZM125.649 11.3241C124.377 11.3241 123.408 11.7782 122.712 12.7166C122.046 13.6551 121.683 14.9871 121.683 16.7429C121.683 18.4987 122.016 19.8306 122.712 20.7691C123.378 21.7075 124.377 22.1616 125.649 22.1616C126.92 22.1616 127.889 21.7075 128.555 20.7691C129.221 19.8306 129.554 18.4987 129.554 16.7126C129.554 14.9568 129.221 13.5945 128.555 12.6561C127.889 11.7782 126.92 11.3241 125.649 11.3241Z" fill="#272526"/>
<path d="M145.992 23.312V33.0597H140.058V7.44924H145.992V10.1738C146.809 9.08395 147.717 8.29686 148.716 7.78223C149.715 7.2676 150.866 7.02542 152.137 7.02542C154.438 7.02542 156.315 7.9336 157.768 9.74994C159.251 11.5663 159.978 13.8973 159.978 16.7731C159.978 19.6187 159.251 21.98 157.768 23.7963C156.284 25.6127 154.407 26.5208 152.137 26.5208C150.835 26.5208 149.715 26.2787 148.716 25.764C147.717 25.2191 146.809 24.4018 145.992 23.312ZM149.927 11.3241C148.656 11.3241 147.687 11.7782 146.991 12.7166C146.325 13.6551 145.961 14.9871 145.961 16.7429C145.961 18.4987 146.294 19.8306 146.991 20.7691C147.657 21.7075 148.656 22.1616 149.927 22.1616C151.199 22.1616 152.167 21.7075 152.833 20.7691C153.499 19.8306 153.832 18.4987 153.832 16.7126C153.832 14.9568 153.499 13.5945 152.833 12.6561C152.167 11.7782 151.199 11.3241 149.927 11.3241Z" fill="#272526"/>
</svg>
